<svg width="24" height="24" viewBox="0 0 24 24" fill="none" xmlns="http://www.w3.org/2000/svg">
<g clip-path="url(#clip0_41_69)">
<path fill-rule="evenodd" clip-rule="evenodd" d="M4.8 0C2.1408 0 0 2.1408 0 4.8V19.2C0 21.8592 2.1408 24 4.8 24H19.2C21.8592 24 24 21.8592 24 19.2V4.8C24 2.1408 21.8592 0 19.2 0H4.8Z" fill="#567C8D"/>
<path d="M3.59998 5.99994V6.09463L10.5641 12.5077C11.3609 13.2415 12.6231 13.2416 13.4199 12.5078L20.4 6.0801V5.99994H3.59998Z" fill="#F5EFEB"/>
<path d="M20.4 7.30145L15.2111 12.0797L20.4 17.2685V7.30145ZM3.59998 7.31622V17.3776L8.83791 12.1397L3.59998 7.31622ZM14.5486 12.6899L14.083 13.1185C12.9302 14.1801 11.0535 14.1801 9.9008 13.1185L9.50048 12.75L4.25048 18H19.8586L14.5486 12.6899Z" fill="#F5EFEB"/>
</g>
<defs>
<clipPath id="clip0_41_69">
<rect width="24" height="24" fill="white"/>
</clipPath>
</defs>
</svg>
