<svg width="24" height="24" viewBox="0 0 24 24" fill="none" xmlns="http://www.w3.org/2000/svg">
<g clip-path="url(#clip0_11_56)">
<path d="M11.9996 0C7.40727 0 3.6712 3.73661 3.6712 8.32907C3.6712 12.7497 11.2277 23.0779 11.5495 23.5152L11.8497 23.9239C11.8849 23.9719 11.9408 24 11.9996 24C12.0593 24 12.1149 23.9719 12.1504 23.9239L12.4505 23.5152C12.7724 23.0779 20.3287 12.7497 20.3287 8.32907C20.3287 3.73661 16.5921 0 11.9996 0ZM11.9996 5.34561C13.6451 5.34561 14.9831 6.68368 14.9831 8.32907C14.9831 9.97361 13.645 11.3125 11.9996 11.3125C10.3551 11.3125 9.01615 9.97361 9.01615 8.32907C9.01615 6.68368 10.3551 5.34561 11.9996 5.34561Z" fill="#567C8D"/>
</g>
<defs>
<clipPath id="clip0_11_56">
<rect width="24" height="24" fill="white"/>
</clipPath>
</defs>
</svg>
